Simulation
nRows=23
nColumns=15
endheader
time  TH_x TH_y TH_z SC_y  SC_z  SC_x  AC_y  AC_z  AC_x  GH_y  GH_z  GH_yy  EL_x  PS_y
2.681  0.000000  0.000000  0.000000  -27.021424321567334  5.129448264657478  5.001613464220732  50.671294910883354  4.531706678687054  2.433642287711658  -46.51382356083618  9.789489416492335  85.72136943032942  15.83494655056246  120.000000
2.716746666666667  0.000000  0.000000  0.000000  -26.783140674548623  4.90414822519427  4.6117959113216225  50.69178318408373  4.835132902424937  2.4960682909284686  -49.572855177241266  8.67675111456517  91.11429453972069  16.566961419007  120.000000
2.7524933333333337  0.000000  0.000000  0.000000  -26.649796315166537  4.715057486919494  4.292355702384687  50.71599911807256  5.144676020231737  2.5524913189299743  -52.19250015752106  7.629377197099965  95.65619778789174  17.214441718527688  120.000000
2.78824  0.000000  0.000000  0.000000  -26.60530740371965  4.556445828971402  4.034050190199512  50.74043642877839  5.45400803792551  2.60036052493168  -54.31740160018557  6.649764229909398  99.30531839428335  17.76149291373069  120.000000
2.823986666666667  0.000000  0.000000  0.000000  -26.626649762061977  4.423899830658604  3.8274936684369076  50.764945734795084  5.757316094615753  2.6397389058902285  -55.89129667043687  5.751689070965771  102.03852189260495  18.200337510983136  120.000000
2.8597333333333337  0.000000  0.000000  0.000000  -26.688167079554507  4.314010562197748  3.6648664432101845  50.792008811177425  6.050213799443342  2.6731850432566047  -56.8503511485007  4.954549222430582  103.840792767563  18.52875887478123  120.000000
2.89548  0.000000  0.000000  0.000000  -26.766559453427778  4.224383403392366  3.5394987229194244  50.82550117757179  6.328872135519796  2.7033278197893087  -57.09913323211279  4.275292468934727  104.66965896650608  18.748623592821364  120.000000
2.931226666666667  0.000000  0.000000  0.000000  -26.843995808237594  4.153201940191228  3.4463351966838327  50.869217195283305  6.591005824306747  2.732781278854803  -56.54879724366499  3.7244729330193427  104.49153079463882  18.86586630065395  120.000000
2.9669733333333337  0.000000  0.000000  0.000000  -26.910027604855145  4.09869206336285  3.3806588108765863  50.925935761875365  6.835068914816986  2.763282769481612  -55.15348965214613  3.3031413852278115  103.30969007705883  18.89153223739552  120.000000
3.00272  0.000000  0.000000  0.000000  -26.961340887483434  4.058782602033465  3.338449241080333  50.99664756234491  7.060751693647044  2.795865904332641  -52.98229776656679  3.002082652108435  101.23733836418211  18.841568456454524  120.000000
3.038466666666667  0.000000  0.000000  0.000000  -26.999350049062294  4.030633386723295  3.315722873749867  51.080989702089944  7.268013007744789  2.8311746780538902  -50.229371239214785  2.8039247543230617  98.50445804550131  18.735896501668716  120.000000
3.0742133333333337  0.000000  0.000000  0.000000  -27.027983141291408  4.011004373524441  3.3088906301777032  51.17708923951331  7.457549289004075  2.8695767634364118  -47.17201070468979  2.6850127706138647  95.41862814126716  18.595699791765703  120.000000
3.10996  0.000000  0.000000  0.000000  -27.051313035964395  3.9963355506040688  3.314546842885185  51.28215468916256  7.630147068827046  2.9115810341775594  -44.07461386914204  2.6202193747516778  92.26781097941435  18.441253342278745  120.000000
3.145706666666667  0.000000  0.000000  0.000000  -27.072803295817273  3.9836246955149206  3.329737365304166  51.392720612921714  7.78729075413541  2.957381106941221  -41.11983044478303  2.5853056647931583  89.25306201903352  18.28903239119918  120.000000
3.1814533333333337  0.000000  0.000000  0.000000  -27.094548623447746  3.970730514829431  3.3518297565727924  51.505711271251435  7.930815160739501  3.0068672518167867  -38.38986612326228  2.560459509095316  86.46913747746143  18.15003047570366  120.000000
3.2172  0.000000  0.000000  0.000000  -27.11763308813484  3.956709379007129  3.3786181481167805  51.618892836527976  8.06321764388697  3.0592061420024255  -35.88753658103058  2.5309180141087753  83.92642680385221  18.02875947939307  120.000000
3.252946666666667  0.000000  0.000000  0.000000  -27.14227669011491  3.941571454825638  3.408409542900502  51.731187260990055  8.187395549611455  3.113090046437271  -33.57209439088946  2.4877902398537497  81.58728876161466  17.924338394505465  120.000000
3.2886933333333337  0.000000  0.000000  0.000000  -27.168468078518806  3.92581146165381  3.440122775454774  51.84241956102997  8.306526339703812  3.166905644742992  -31.387652260687183  2.427195631434694  79.39556312896892  17.83229762068669  120.000000
3.32444  0.000000  0.000000  0.000000  -27.19627152019145  3.9099777080866693  3.473376111069444  51.953135630359014  8.423722395222308  3.219189889538315  -29.2820937267302  2.3490603872070106  77.29682050244992  17.746758200373698  120.000000
3.360186666666667  0.000000  0.000000  0.000000  -27.226274280510363  3.8941502855381094  3.5083664452762053  52.06436856145729  8.541687167944788  3.26885572916842  -27.212813007538287  2.2556017451161288  75.24497257473537  17.662205937846725  120.000000
3.3959333333333337  0.000000  0.000000  0.000000  -27.25976139883547  3.8778605164873436  3.5456689967490997  52.17747390999758  8.662516429439107  3.315261246480215  -25.148263674558848  2.1497171497848133  73.20495558331649  17.57486851798475  120.000000
3.43168  0.000000  0.000000  0.000000  -27.298792405444445  3.860067882875853  3.585952908863801  52.293894903656394  8.78752080125561  3.3582416417228393  -23.061976343123273  2.034010987091289  71.1471295456822  17.483471655095126  120.000000
3.467426666666667  0.000000  0.000000  0.000000  -27.34579480545026  3.8395565472665885  3.629780291393419  52.41482309796729  8.917256752363336  3.398051005229396  -20.92423508290378  1.910131354753385  69.03946800217798  17.389141511285818  120.000000
